<svg xml:space="preserve" style="enable-background:new 0 0 1200 1200;" viewBox="0 0 1200 1200" y="0px" x="0px" xmlns:xlink="http://www.w3.org/1999/xlink" xmlns="http://www.w3.org/2000/svg" id="图层_1" version="1.1">
<style type="text/css">
	.st0{fill-rule:evenodd;clip-rule:evenodd;fill:url(#SVGID_1_);}
	.st1{fill-rule:evenodd;clip-rule:evenodd;fill:url(#SVGID_00000005986685074467452160000009108412463077556363_);}
	.st2{fill-rule:evenodd;clip-rule:evenodd;fill:url(#SVGID_00000066510602830993912430000008307955321589385881_);}
	.st3{fill-rule:evenodd;clip-rule:evenodd;fill:url(#SVGID_00000019644604592638724020000004340628968144763264_);}
	.st4{fill-rule:evenodd;clip-rule:evenodd;fill:url(#SVGID_00000125580315553715475810000015602568211674933416_);}
	.st5{fill-rule:evenodd;clip-rule:evenodd;fill:url(#SVGID_00000060717189480971137790000002878515733239184018_);}
	.st6{fill-rule:evenodd;clip-rule:evenodd;fill:url(#SVGID_00000148624800350386906890000003239001376778941615_);}
	.st7{fill-rule:evenodd;clip-rule:evenodd;fill:#E6F3FF;}
	.st8{fill-rule:evenodd;clip-rule:evenodd;fill:#C5DADD;}
	.st9{fill-rule:evenodd;clip-rule:evenodd;fill:url(#SVGID_00000070081373867727977100000017729005960532974228_);}
	.st10{fill-rule:evenodd;clip-rule:evenodd;fill:#373E54;}
	.st11{fill-rule:evenodd;clip-rule:evenodd;fill:#3A302E;}
	.st12{fill:#FFCBBB;}
	.st13{fill-rule:evenodd;clip-rule:evenodd;fill:#FFF9F8;}
	.st14{fill-rule:evenodd;clip-rule:evenodd;fill:#FFC2C2;}
	.st15{fill-rule:evenodd;clip-rule:evenodd;fill:#D4E6FF;}
	.st16{fill-rule:evenodd;clip-rule:evenodd;fill:#1E3768;}
	.st17{fill:#FFB094;}
	.st18{fill-rule:evenodd;clip-rule:evenodd;fill:#FCC9BB;}
	.st19{fill-rule:evenodd;clip-rule:evenodd;fill:#193054;}
	.st20{fill-rule:evenodd;clip-rule:evenodd;fill:#C2D2D3;}
	.st21{fill-rule:evenodd;clip-rule:evenodd;fill:#D3DFE0;}
	.st22{fill-rule:evenodd;clip-rule:evenodd;fill:url(#SVGID_00000147214260363227857570000003384340279352786822_);}
	.st23{fill-rule:evenodd;clip-rule:evenodd;fill:#344454;}
	.st24{fill-rule:evenodd;clip-rule:evenodd;fill:#3B4C5B;}
	.st25{fill:none;stroke:#121928;stroke-width:12;stroke-miterlimit:10;}
	.st26{fill-rule:evenodd;clip-rule:evenodd;fill:#3D3F47;}
</style>
<g>
	<g>
		<g>
			
				<linearGradient gradientTransform="matrix(-1 0 0 1 1717.3657 0)" y2="527.2284" x2="1410.2853" y1="671.1686" x1="1348.9371" gradientUnits="userSpaceOnUse" id="SVGID_1_">
				<stop style="stop-color:#FFDBD4" offset="4.984026e-07"></stop>
				<stop style="stop-color:#FFD1BF" offset="1"></stop>
			</linearGradient>
			<path d="M377.29,682.34c-77.19,29.4-130.72-110.98-108.73-152.86c22-41.87,108.73,4.56,108.73,4.56V682.34z" class="st0"></path>
			
				<linearGradient gradientTransform="matrix(-1 0 0 1 1717.3657 0)" y2="669.6576" x2="1394.7075" y1="537.7574" x1="1397.2465" gradientUnits="userSpaceOnUse" id="SVGID_00000105384712498657862770000013733900621628443527_">
				<stop style="stop-color:#FAC1B6" offset="2.587860e-07"></stop>
				<stop style="stop-color:#FFDED1" offset="1"></stop>
			</linearGradient>
			<path d="M321.58,537.78c0,0-45.81-12.62-42.94,22.46s23.41,106.52,86.01,109L321.58,537.78z" style="fill-rule:evenodd;clip-rule:evenodd;fill:url(#SVGID_00000105384712498657862770000013733900621628443527_);"></path>
		</g>
		<g>
			
				<linearGradient y2="527.2284" x2="854.7125" y1="671.1686" x1="793.3644" gradientUnits="userSpaceOnUse" id="SVGID_00000119821289931146840230000001201367573269206953_">
				<stop style="stop-color:#FFDBD4" offset="4.984026e-07"></stop>
				<stop style="stop-color:#FFD1BF" offset="1"></stop>
			</linearGradient>
			<path d="M784.5,534.04c0,0,86.73-46.44,108.73-4.56c22,41.87-31.54,182.26-108.73,152.86V534.04z" style="fill-rule:evenodd;clip-rule:evenodd;fill:url(#SVGID_00000119821289931146840230000001201367573269206953_);"></path>
			
				<linearGradient y2="669.6576" x2="839.1348" y1="537.7574" x1="841.6738" gradientUnits="userSpaceOnUse" id="SVGID_00000041278218513882479940000007761809132970854325_">
				<stop style="stop-color:#FAC1B6" offset="2.587860e-07"></stop>
				<stop style="stop-color:#FFDED1" offset="1"></stop>
			</linearGradient>
			<path d="M840.21,537.78c0,0,45.81-12.62,42.94,22.46c-2.87,35.09-23.41,106.52-86.01,109L840.21,537.78z" style="fill-rule:evenodd;clip-rule:evenodd;fill:url(#SVGID_00000041278218513882479940000007761809132970854325_);"></path>
			
				<linearGradient y2="669.6657" x2="839.1348" y1="537.7654" x1="841.6738" gradientUnits="userSpaceOnUse" id="SVGID_00000117666635257041187180000016404701992908147117_">
				<stop style="stop-color:#FAC1B6" offset="2.587860e-07"></stop>
				<stop style="stop-color:#FFDED1" offset="1"></stop>
			</linearGradient>
			<path d="M840.21,537.79c0,0,45.81-12.62,42.94,22.46c-2.87,35.09-23.41,106.52-86.01,109L840.21,537.79z" style="fill-rule:evenodd;clip-rule:evenodd;fill:url(#SVGID_00000117666635257041187180000016404701992908147117_);"></path>
		</g>
	</g>
	
		<linearGradient y2="826.3212" x2="585.2277" y1="959.6361" x1="583.2851" gradientUnits="userSpaceOnUse" id="SVGID_00000043420099741360079000000009428156961025346969_">
		<stop style="stop-color:#FFDBD4" offset="9.920130e-07"></stop>
		<stop style="stop-color:#FFBFAA" offset="1"></stop>
	</linearGradient>
	<path d="M677.33,825.17l-96.25,1.38l-96.25-1.38c0,0,2.5,58.33-8.24,99.97c-5.51,21.37,14.77,39.85,36.83,39.85h64.99h5.34h74.43
		c23.62,0,37.99-21.34,32.29-44.26C680.19,879.44,677.33,825.17,677.33,825.17z" style="fill-rule:evenodd;clip-rule:evenodd;fill:url(#SVGID_00000043420099741360079000000009428156961025346969_);"></path>
	
		<linearGradient y2="856.4008" x2="575.5379" y1="222.9075" x1="587.7321" gradientUnits="userSpaceOnUse" id="SVGID_00000011748793972210465160000008769358948950417287_">
		<stop style="stop-color:#FFDBD4" offset="4.984026e-07"></stop>
		<stop style="stop-color:#FFD1BF" offset="1"></stop>
	</linearGradient>
	<path d="M820.86,595.02c0,24.6-5.19,54.74-10.68,79.78c-6.77,30.84-20.94,59.57-41.32,83.7l-17.52,20.74
		c-25.28,29.93-59.02,51.51-96.79,61.91l-52.23,14.38c-14.01,3.86-28.81,3.84-42.81-0.04l-53.78-14.91
		c-36.26-10.05-68.92-30.21-94.18-58.11l-17-18.79c-17.11-18.9-29.52-39.55-36.31-64.12c-8.1-29.33-17.28-71.78-17.28-104.54
		c0-212.17,10.1-384.17,239.96-384.17C785.82,210.85,820.86,382.85,820.86,595.02z" style="fill-rule:evenodd;clip-rule:evenodd;fill:url(#SVGID_00000011748793972210465160000008769358948950417287_);"></path>
	<path d="M479.61,858.11c-43.98,23.7-115.05,72.92-136.42,78.58c-72.03,19.09-143.11,73.59-192.15,263.31l857.97,0
		c0,0-62.61-203.64-174.81-259.32c-32.23-14.71-107.19-53.3-144.64-79.27c-29.73-16.3-52.8,69.39-115.56,73.3
		C520.13,938.06,499.05,864.85,479.61,858.11z" class="st7"></path>
	<polygon points="485.96,895.08 566.44,1200 617.66,1200 692.55,888.61" class="st8"></polygon>
	<path d="M484.95,853.88c-8.46-1.06,0.15-8,0.15-8L484.95,853.88z" class="st7"></path>
	
		<linearGradient gradientTransform="matrix(-1 0 0 1 7286.0684 0)" y2="849.0447" x2="6607.4106" y1="849.0447" x1="6602.5078" gradientUnits="userSpaceOnUse" id="SVGID_00000021812754561911945000000006449228595669974463_">
		<stop style="stop-color:#FFDBD4" offset="9.920130e-07"></stop>
		<stop style="stop-color:#FFDCD1" offset="1"></stop>
	</linearGradient>
	<path d="M678.66,844.39c0,0,10.37,9.79,0.94,9.3L678.66,844.39z" style="fill-rule:evenodd;clip-rule:evenodd;fill:url(#SVGID_00000021812754561911945000000006449228595669974463_);"></path>
	<path d="M462.48,864.8" class="st10"></path>
	<path d="M658.21,522.01c-0.09-21.18,13.95-24.81,26.36-28.44c9.83-2.87,42.97-16.2,76.51-8.85
		c14.86,3.26,19.86,10.69-1.12,14.76c-28.07,5.44-45.78,11.85-57.3,15.39C684.55,520.44,658.26,533.33,658.21,522.01z" class="st11"></path>
	<path d="M466.35,514.87c-11.53-3.54-29.23-9.96-57.3-15.39c-20.98-4.06-15.97-11.5-1.12-14.76
		c33.54-7.35,66.68,5.97,76.51,8.85c12.41,3.63,26.46,7.26,26.36,28.44C510.76,533.33,484.47,520.44,466.35,514.87z" class="st11"></path>
	<path d="M600.81,696.4c0,6.54-10.21,11.84-22.8,11.84c-12.59,0-22.8-5.3-22.8-11.84c0-6.54,10.21-19.94,22.8-19.94
		C590.6,676.46,600.81,689.86,600.81,696.4z" class="st12"></path>
	<g>
		<g>
			<path d="M464.35,537.07c-10.97,0-20.72,7.31-26.98,18.67l5.42,5.48h-8.03c-2.92,7.13-4.6,15.4-4.6,24.24
				c0,26.73,15.31,48.4,34.2,48.4c18.89,0,34.2-21.67,34.2-48.4C498.55,558.74,483.24,537.07,464.35,537.07z" class="st11"></path>
			<ellipse ry="14.19" rx="7.94" cy="576.43" cx="475.55" class="st13"></ellipse>
		</g>
		<g>
			<path d="M697.44,537.07c10.97,0,20.72,7.31,26.98,18.67l-5.42,5.48l9.82,5.02c2.92,7.13,2.81,10.39,2.81,19.22
				c0,26.73-15.31,48.4-34.2,48.4c-18.89,0-34.2-21.67-34.2-48.4C663.24,558.74,678.55,537.07,697.44,537.07z" class="st11"></path>
			<ellipse ry="14.19" rx="7.94" cy="576.43" cx="681.56" class="st13"></ellipse>
		</g>
	</g>
	<ellipse ry="19.22" rx="41.75" cy="693.19" cx="440.22" class="st14"></ellipse>
	<ellipse ry="19.22" rx="41.75" cy="693.19" cx="729.06" class="st14"></ellipse>
	<path d="M350.13,1059.89c0,0-71.19,24.58-84.18,140.11h40.4C306.35,1200,313.16,1129.97,350.13,1059.89z" class="st15"></path>
	<path d="M797.78,1066.56c0,0,66.02,72.41,78.01,133.44h-46.46C829.32,1200,834.75,1136.64,797.78,1066.56z" class="st15"></path>
	<polygon points="559.78,928.34 532.3,1170.01 584.09,1200 650.64,1160.73 608.34,929.02" class="st16"></polygon>
	<path d="M471.44,862.62c0,0-59.59,55.28-65.24,115.38l34.49-9.68l-50.62,33.48c0,0,61.41,70.36,160.94,198.19
		c7.79,0,16.12,0,16.12,0l-34.47-128.01L470.2,911.05L471.44,862.62z" class="st15"></path>
	<g>
		<path d="M549.5,768.93c-1.92,0-3.75-1.11-4.58-2.99c-1.11-2.53,0.04-5.48,2.56-6.59
			c39.98-17.59,71.3-0.52,72.62,0.21c2.41,1.35,3.27,4.39,1.92,6.8c-1.35,2.41-4.38,3.27-6.79,1.93
			c-1.18-0.65-28.48-15.3-63.72,0.21C550.86,768.79,550.18,768.93,549.5,768.93z" class="st17"></path>
	</g>
	<path d="M563.47,776.3c8.79,1.15,24.43,2.56,38.66,0.47c2-0.29,3.02,2.3,1.34,3.42c-4.76,3.16-11.73,6.73-19.39,7.14
		c-8.41,0.45-16.66-3.99-21.93-7.62C560.54,778.58,561.52,776.04,563.47,776.3z" class="st18"></path>
	<path d="M559.55,929.66l-0.74,3.42c-0.12,0.55,0.29,1.06,0.85,1.07l48.4,0.78c0.85,0.01,1.48-0.78,1.28-1.6
		l-0.72-2.97L559.55,929.66z" class="st19"></path>
	<path d="M491.24,901.57c0,0,44.32,32.5,52.99,32.83c8.67,0.34,11.58-13.74,11.58-13.74l-4.3-10.73L491.24,901.57z" class="st20"></path>
	<path d="M677.83,901.57c0,0-44.32,32.5-52.99,32.83c-8.67,0.34-11.58-13.74-11.58-13.74l4.3-10.73L677.83,901.57z" class="st20"></path>
	<path d="M559.66,878c0,0,40.58,2.5,49.16-0.22l7.18,29.13l-7.11,22.9c-0.33,1.05-1.3,1.75-2.4,1.74l-45.05-0.65
		c-1.01-0.01-1.9-0.64-2.27-1.58l-8.17-20.99L559.66,878z" class="st16"></path>
	<path d="M481.19,851.96c0,0-13.38,26.96-10.62,34.82c2.76,7.87,68.68,40.84,75.93,39.03
		c5.75-1.44,10.01-26.07,13.56-47.14c0.23-1.37-0.72-2.64-2.1-2.84C517.24,870.16,481.19,851.96,481.19,851.96z" class="st21"></path>
	<path d="M683.36,851.93c1.82-0.5,17.04,28.66,14.85,34.89c-2.76,7.87-68.68,40.84-75.93,39.03
		c-5.76-1.44-12.09-12.36-13.64-46.4c-0.1-2.2,1.59-4.05,3.78-4.19C646.49,873.05,683.36,851.93,683.36,851.93z" class="st21"></path>
	
		<linearGradient y2="845.675" x2="678.8842" y1="845.675" x1="678.8842" gradientUnits="userSpaceOnUse" id="SVGID_00000121275942991246764530000009446518311254601631_">
		<stop style="stop-color:#FFDBD4" offset="9.920130e-07"></stop>
		<stop style="stop-color:#FFDCD1" offset="1"></stop>
	</linearGradient>
	<path d="M678.88,845.68" style="fill-rule:evenodd;clip-rule:evenodd;fill:url(#SVGID_00000121275942991246764530000009446518311254601631_);"></path>
	<path d="M481.41,850.4c-9.08,8.53-58.07,75.17-69.56,118.13l50.64-6.66l-57.9,39.33
		c-3.98,5.04,153.24,163.87,153.24,163.87s-45.77-184.89-58.25-276.15c-1.52-11.15-14.35-23.8-14.55-35.13
		C480.52,851.97,481.68,851.42,481.41,850.4z" class="st7"></path>
	<path d="M542.48,1149.5c0,0,14.33,17.08,22.34,50.5h2.3l-9.3-34.93L542.48,1149.5z" class="st7"></path>
	<path d="M693.74,862.62c0,0,59.59,55.28,65.24,115.38l-34.49-9.68l48.92,35.86L624.46,1200h-26.4l34.47-128.01
		l62.45-160.94L693.74,862.62z" class="st15"></path>
	<path d="M683.99,851.05c9.08,8.53,57.85,74.52,69.35,117.48l-50.64-6.66l57.9,39.33
		c3.98,5.04-153.24,163.87-153.24,163.87S659.35,944.53,683.99,851.05z" class="st7"></path>
	<path d="M762.9,1118.48l-8.44-3.36l12.16-30.52c0.88-2.22,3.4-3.3,5.62-2.42l4.42,1.76c2.22,0.88,3.3,3.4,2.42,5.62
		l-10.56,26.5C767.63,1118.28,765.12,1119.37,762.9,1118.48z" class="st23"></path>
	<path d="M622.7,1149.5c0,0-14.33,17.08-22.34,50.5h-2.3l9.3-34.93L622.7,1149.5z" class="st7"></path>
	<path d="M703.1,1111.92c0,0,78.77,3.87,105.66,0C808.75,1111.92,764.2,1127.65,703.1,1111.92z" class="st15"></path>
	<path d="M703.49,1111.92l-1.51,65.04C701.98,1176.96,705.76,1119.03,703.49,1111.92z" class="st15"></path>
	<path d="M808.03,1111.92l-1.51,65.04C806.52,1176.96,810.3,1119.03,808.03,1111.92z" class="st15"></path>
	<polygon points="764.81,1089.14 777.31,1093.99 776.59,1095.81 764.1,1090.92" class="st24"></polygon>
	<path d="M704.22,1128.87c0,0,44.06,9.53,103.42,1.82v2.24c0,0-36.17,9.56-103.51-1.64L704.22,1128.87z" class="st15"></path>
	<g>
		<path d="M488.25,662.22c-22.39,1.39-44.77,1.39-67.16,0c-28.88-2.38-61.02-31.47-63.17-60.97
			c-0.45-8.69-0.45-17.39,0-26.08c2.15-29.5,34.29-58.59,63.17-60.97c22.39-1.39,44.77-1.39,67.16,0
			c28.88,2.38,61.02,31.47,63.17,60.97c0.45,8.69,0.45,17.39,0,26.08C549.27,630.75,517.13,659.84,488.25,662.22z" class="st25"></path>
		<path d="M740.7,662.22c-22.39,1.39-44.77,1.39-67.16,0c-28.88-2.38-61.02-31.47-63.17-60.97
			c-0.45-8.69-0.45-17.39,0-26.08c2.15-29.5,34.29-58.59,63.17-60.97c22.39-1.39,44.77-1.39,67.16,0
			c28.88,2.38,61.02,31.47,63.17,60.97c0.45,8.69,0.45,17.39,0,26.08C801.72,630.75,769.58,659.84,740.7,662.22z" class="st25"></path>
		<path d="M551.76,591.94" class="st25"></path>
		<line y2="591.94" x2="610.07" y1="591.94" x1="551.76" class="st25"></line>
	</g>
	<path d="M307.78,537.78c0,0,3.38,17.13,10.4,8.62c27.6-33.47,104.65-141.81,188.96-177.25
		c30.25,19.97,189.18,29.51,253.53,46.98c60.19,16.34,57.6,113.39,60.19,134.54c2.59,21.14,63.78-141.8,36.3-241.02
		c-15.87-57.3-38.07-93.41-94.79-124.64c-7.32-4.03-37.09-11.48-44.37-14.92c-5.93-2.81-22.69-13.83-28.5-16.23
		c-27.46-11.36-52.98-18.05-71.84-19.09c-65.63-3.63-318.35-17.82-326.82,259.59C289.34,443.57,307.78,537.78,307.78,537.78z" class="st26"></path>
	<path d="M664.35,128.93c0,0,33.68,11.5,30.99,40.11l59.6,25.24c0,0,17.21-15.64,53.51-13.82
		c0,0-32.67-22.99-77.11-14.45C731.34,166.02,727.75,133.77,664.35,128.93z" class="st26"></path>
	<path d="M807.87,238.54c0,0,61.45,85.66,65.68,104.41c-5-32.76,2.72-45.08-36.3-93.18
		c-24.42-30.1-77.05-50.07-77.05-50.07" class="st26"></path>
	<path d="M634.19,136.8c0,0-71.69-31.66-133.4-19.56c0,0,81.08,11.5,102.86,31.46L634.19,136.8z" class="st26"></path>
	<path d="M475.55,372.56c0,0-34.05,24.81-45.85,82.89c0,0,71.82-83,105.16-76.39c33.33,6.61,0-27.68,0-27.68
		L475.55,372.56z" class="st26"></path>
	<path d="M495.65,378.92c0,0-24.81,35.7-23.29,53.55c0,0,59.29-63.23,87.13-58.69L495.65,378.92z" class="st26"></path>
</g>
</svg>
